<?xml version="1.0" encoding="UTF-8" standalone="no"?>
<svg
   width="512"
   height="164.19839"
   viewBox="0 0 512 164.19839"
   version="1.1"
   id="svg44"
   sodipodi:docname="Canva.svg"
   inkscape:version="1.1.1 (3bf5ae0d25, 2021-09-20)"
   xmlns:inkscape="http://www.inkscape.org/namespaces/inkscape"
   xmlns:sodipodi="http://sodipodi.sourceforge.net/DTD/sodipodi-0.dtd"
   xmlns:xlink="http://www.w3.org/1999/xlink"
   xmlns="http://www.w3.org/2000/svg"
   xmlns:svg="http://www.w3.org/2000/svg">
  <sodipodi:namedview
     id="namedview46"
     pagecolor="#ffffff"
     bordercolor="#666666"
     borderopacity="1.0"
     inkscape:pageshadow="2"
     inkscape:pageopacity="0.0"
     inkscape:pagecheckerboard="0"
     showgrid="false"
     inkscape:zoom="6.725"
     inkscape:cx="35.762082"
     inkscape:cy="15.687732"
     inkscape:window-width="1366"
     inkscape:window-height="715"
     inkscape:window-x="-8"
     inkscape:window-y="-8"
     inkscape:window-maximized="1"
     inkscape:current-layer="svg44" />
  <defs
     id="defs40">
    <pattern
       inkscape:collect="always"
       xlink:href="#_2002046508__f"
       id="pattern1843"
       patternTransform="matrix(6.4,0,0,6.4,0,-3.584)" />
    <radialGradient
       id="_2002046508__a"
       cx="0"
       cy="0"
       r="1"
       gradientTransform="matrix(16.80002,-17.28,11.48403,11.16504,40.96,29)"
       gradientUnits="userSpaceOnUse">
      <stop
         stop-color="#6420FF"
         id="stop2" />
      <stop
         offset="1"
         stop-color="#6420FF"
         stop-opacity="0"
         id="stop4" />
    </radialGradient>
    <radialGradient
       id="_2002046508__b"
       cx="0"
       cy="0"
       r="1"
       gradientTransform="matrix(46.71996,4.16,-3.31561,37.23688,1.92,17.64)"
       gradientUnits="userSpaceOnUse">
      <stop
         offset=".25"
         stop-color="#00C4CC"
         id="stop7" />
      <stop
         offset="1"
         stop-color="#00C4CC"
         stop-opacity="0"
         id="stop9" />
    </radialGradient>
    <radialGradient
       id="_2002046508__c"
       cx="0"
       cy="0"
       r="1"
       gradientTransform="matrix(23.539732,-18.960276,12.964448,16.095738,34.137074,26.202638)"
       gradientUnits="userSpaceOnUse">
      <stop
         stop-color="#6420FF"
         id="stop12" />
      <stop
         offset="1"
         stop-color="#6420FF"
         stop-opacity="0"
         id="stop14" />
    </radialGradient>
    <radialGradient
       id="_2002046508__d"
       cx="0"
       cy="0"
       r="1"
       gradientTransform="matrix(31.32001,-15.36,10.50269,21.41566,2.28,26.2)"
       gradientUnits="userSpaceOnUse">
      <stop
         stop-color="#6420FF"
         id="stop17" />
      <stop
         offset="1"
         stop-color="#6420FF"
         stop-opacity="0"
         id="stop19" />
    </radialGradient>
    <radialGradient
       id="_2002046508__e"
       cx="0"
       cy="0"
       r="1"
       gradientTransform="matrix(67.99982,15.03996,-18.44596,83.39925,7.68,2.92)"
       gradientUnits="userSpaceOnUse">
      <stop
         stop-color="#00C4CC"
         id="stop22" />
      <stop
         offset="1"
         stop-color="#00C4CC"
         stop-opacity="0"
         id="stop24" />
    </radialGradient>
    <pattern
       id="_2002046508__f"
       width="1"
       height="1">
      <path
         fill="#7D2AE7"
         d="M0 0h100v100H0z"
         id="path27" />
      <path
         fill="url(#_2002046508__a)"
         d="M0 0h100v100H0z"
         id="path29" />
      <path
         fill="url(#_2002046508__b)"
         d="M0 0h100v100H0z"
         id="path31" />
      <path
         fill="url(#_2002046508__c)"
         d="M0 0h100v100H0z"
         id="path33" />
      <path
         fill="url(#_2002046508__d)"
         d="M0 0h100v100H0z"
         id="path35" />
      <path
         fill="url(#_2002046508__e)"
         d="M0 0h100v100H0z"
         id="path37" />
    </pattern>
  </defs>
  <path
     fill="url(#_2002046508__f)"
     d="m 508.4416,112.2304 c -0.8704,0 -1.664,0.5632 -2.0736,1.7408 -5.248,14.976 -12.3392,23.8848 -18.176,23.8848 -3.3536,0 -4.7104,-3.7376 -4.7104,-9.6 0,-14.6688 8.7808,-45.7728 13.2096,-59.9552 0.512,-1.7152 0.8448,-3.2512 0.8448,-4.5568 0,-4.1216 -2.2528,-6.144 -7.8336,-6.144 -6.016,0 -12.4928,2.3552 -18.7904,13.3888 -2.176,-9.728 -8.7552,-13.9776 -17.9456,-13.9776 -10.624,0 -20.8896,6.8352 -29.3376,17.92 -8.448,11.0848 -18.3808,14.72 -25.856,12.928 5.376,-13.1584 7.3728,-22.9888 7.3728,-30.2848 0,-11.4432 -5.6576,-18.3552 -14.7968,-18.3552 -13.9008,0 -21.9136,13.2608 -21.9136,27.2128 0,10.7776 4.8896,21.8624 15.6416,27.2384 -9.0112,20.3776 -22.1696,38.8096 -27.1616,38.8096 -6.4512,0 -8.3456,-31.5648 -7.9872,-54.144 0.2304,-12.9536 1.3056,-13.6192 1.3056,-17.536 0,-2.2528 -1.4592,-3.7888 -7.3216,-3.7888 -13.6704,0 -17.8944,11.5712 -18.5344,24.8576 a 65.4912,65.4912 0 0 1 -2.3552,14.9248 c -5.7088,20.3776 -17.4848,35.84 -25.1648,35.84 -3.5584,0 -4.5312,-3.5584 -4.5312,-8.2176 0,-14.6688 8.2176,-32.9984 8.2176,-48.64 0,-11.4944 -5.0432,-18.7648 -14.5408,-18.7648 -11.1872,0 -25.984,13.312 -39.9872,38.2464 4.608,-19.0976 6.5024,-37.5808 -7.1424,-37.5808 a 18.4704,18.4704 0 0 0 -8.4736,2.2016 4.8128,4.8128 0 0 0 -2.7648,4.6592 c 1.3056,20.3264 -16.384,72.3968 -33.152,72.3968 -3.0464,0 -4.5312,-3.3024 -4.5312,-8.6272 0,-14.6944 8.7552,-45.7216 13.1584,-59.9296 0.5632,-1.8432 0.8704,-3.4304 0.8704,-4.8128 0,-3.8912 -2.4064,-5.888 -7.8592,-5.888 -5.9904,0 -12.4928,2.2784 -18.7648,13.312 -2.2016,-9.728 -8.7808,-13.9776 -17.9712,-13.9776 -15.0784,0 -31.9232,15.9488 -39.3216,36.736 -9.9072,27.7504 -29.8752,54.5536 -56.7552,54.5536 -24.3968,0 -37.2736,-20.3008 -37.2736,-52.3776 0,-46.3104 33.9968,-84.1472 59.2128,-84.1472 12.0576,0 17.8176,7.68 17.8176,19.456 0,14.2592 -7.9616,20.8896 -7.9616,26.3168 0,1.664 1.3824,3.3024 4.1216,3.3024 10.9568,0 23.8592,-12.8768 23.8592,-30.4384 C 123.0848,12.8512 108.8256,0 83.6096,0 41.9328,0 0,41.9328 0,95.6672 c 0,42.752 21.0944,68.5312 57.5744,68.5312 24.8832,0 46.6176,-19.3536 58.3424,-41.9328 1.3312,18.7136 9.8304,28.4928 22.784,28.4928 11.52,0 20.8384,-6.8608 27.9552,-18.9184 2.7392,12.6208 10.0096,18.7904 19.456,18.7904 10.8288,0 19.8912,-6.8608 28.5184,-19.6096 -0.128,10.0096 2.1504,19.4304 10.8288,19.4304 4.096,0 8.9856,-0.9472 9.856,-4.5312 9.1392,-37.7856 31.7184,-68.6336 38.6304,-68.6336 2.048,0 2.6112,1.9712 2.6112,4.3008 0,10.2656 -7.2448,31.3088 -7.2448,44.7488 0,14.5152 6.1696,24.1152 18.9184,24.1152 14.1312,0 28.4928,-17.3056 38.0672,-42.5984 2.9952,23.6288 9.472,42.7008 19.6096,42.7008 12.4416,0 34.5344,-26.1888 47.9232,-53.9136 5.248,0.6656 13.1328,0.4864 20.7104,-4.864 -3.2256,8.1664 -5.12,17.1008 -5.12,26.0352 0,25.728 12.288,32.9472 22.8608,32.9472 11.4944,0 20.8128,-6.8608 27.9552,-18.9184 2.3552,10.88 8.3712,18.7648 19.4304,18.7648 17.3056,0 32.3328,-17.6896 32.3328,-32.2048 0,-3.84 -1.6384,-6.1696 -3.5584,-6.1696 z M 149.248,136.4992 c -6.9888,0 -9.728,-7.04 -9.728,-17.536 0,-18.2272 12.4672,-48.6656 25.6512,-48.6656 5.76,0 7.936,6.784 7.936,15.0784 0,18.5088 -11.8528,51.1232 -23.8592,51.1232 z m 239.3856,-54.4 c -4.1728,-4.9664 -5.6832,-11.7248 -5.6832,-17.7408 0,-7.424 2.7136,-13.696 5.9648,-13.696 3.2512,0 4.2496,3.2 4.2496,7.6544 0,7.4496 -2.6624,18.3296 -4.5312,23.7824 z m 54.1952,54.4 c -6.9888,0 -9.728,-8.0896 -9.728,-17.536 0,-17.5872 12.4672,-48.6656 25.7536,-48.6656 5.76,0 7.808,6.7328 7.808,15.0784 0,18.5088 -11.648,51.1232 -23.8336,51.1232 z"
     id="path42"
     style="fill:url(#pattern1843);stroke-width:6.4" />
</svg>
